<svg width="48" height="48" viewBox="0 0 48 48" fill="none" xmlns="http://www.w3.org/2000/svg">
<path d="M17.05 44.6501C15.45 44.6501 14.0333 44.1751 12.8 43.2251C11.5667 42.2751 10.7 41.0501 10.2 39.5501C9.66665 40.4168 9.01665 41.0918 8.24999 41.5751C7.48332 42.0584 6.56665 42.3001 5.49999 42.3001C3.93332 42.3001 2.63332 41.7501 1.59999 40.6501C0.566655 39.5501 0.0499878 38.2501 0.0499878 36.7501C0.0499878 35.1168 0.558321 33.8251 1.57499 32.8751C2.59165 31.9251 3.88332 31.4334 5.44999 31.4001C4.84999 30.7334 4.38332 29.9584 4.04999 29.0751C3.71665 28.1918 3.54999 27.3001 3.54999 26.4001C3.54999 25.1334 3.87499 23.9501 4.52499 22.8501C5.17499 21.7501 6.09999 20.8668 7.29999 20.2001C7.46665 20.6334 7.67499 21.1001 7.92499 21.6001C8.17499 22.1001 8.43332 22.5334 8.69999 22.9001C8.03332 23.3334 7.50832 23.8668 7.12499 24.5001C6.74165 25.1334 6.54999 25.8001 6.54999 26.5001C6.54999 28.5001 7.35832 29.7584 8.97499 30.2751C10.5917 30.7918 12.15 31.2001 13.65 31.5001L14.2 32.4501C13.8 33.6168 13.475 34.5751 13.225 35.3251C12.975 36.0751 12.85 36.7668 12.85 37.4001C12.85 38.5334 13.275 39.5251 14.125 40.3751C14.975 41.2251 15.9667 41.6501 17.1 41.6501C18.4667 41.6501 19.5917 41.0751 20.475 39.9251C21.3583 38.7751 22.075 37.4084 22.625 35.8251C23.175 34.2418 23.6 32.6418 23.9 31.0251C24.2 29.4084 24.45 28.1501 24.65 27.2501L27.55 28.0501C27.25 29.4834 26.9 31.1501 26.5 33.0501C26.1 34.9501 25.525 36.7584 24.775 38.4751C24.025 40.1918 23.0417 41.6501 21.825 42.8501C20.6083 44.0501 19.0167 44.6501 17.05 44.6501ZM5.54999 39.3001C6.24999 39.3001 6.84165 39.0584 7.32499 38.5751C7.80832 38.0918 8.04999 37.5001 8.04999 36.8001C8.04999 36.1001 7.80832 35.5084 7.32499 35.0251C6.84165 34.5418 6.24999 34.3001 5.54999 34.3001C4.84999 34.3001 4.25832 34.5418 3.77499 35.0251C3.29165 35.5084 3.04999 36.1001 3.04999 36.8001C3.04999 37.5001 3.29165 38.0918 3.77499 38.5751C4.25832 39.0584 4.84999 39.3001 5.54999 39.3001ZM20.55 29.8001C19.05 28.4668 17.6833 27.2251 16.45 26.0751C15.2167 24.9251 14.1583 23.8001 13.275 22.7001C12.3917 21.6001 11.7083 20.5168 11.225 19.4501C10.7417 18.3834 10.5 17.2501 10.5 16.0501C10.5 14.0501 11.2 12.3501 12.6 10.9501C14 9.5501 15.7 8.8501 17.7 8.8501C18 8.8501 18.2833 8.85843 18.55 8.8751C18.8167 8.89176 19.0833 8.93343 19.35 9.0001C19.05 8.43343 18.8333 7.9501 18.7 7.5501C18.5667 7.1501 18.5 6.7501 18.5 6.3501C18.5 4.81676 19.0333 3.51676 20.1 2.4501C21.1667 1.38343 22.4667 0.850098 24 0.850098C25.5333 0.850098 26.8333 1.38343 27.9 2.4501C28.9667 3.51676 29.5 4.81676 29.5 6.3501C29.5 6.71676 29.4417 7.10843 29.325 7.5251C29.2083 7.94176 28.9833 8.43343 28.65 9.0001C28.9167 8.93343 29.1833 8.89176 29.45 8.8751C29.7167 8.85843 30 8.8501 30.3 8.8501C32.2 8.8501 33.8083 9.45843 35.125 10.6751C36.4417 11.8918 37.2 13.4001 37.4 15.2001C36.9333 15.1668 36.4333 15.1584 35.9 15.1751C35.3667 15.1918 34.8667 15.2334 34.4 15.3001C34.2333 14.3001 33.7833 13.4751 33.05 12.8251C32.3167 12.1751 31.4 11.8501 30.3 11.8501C29.0667 11.8501 28.0917 12.1918 27.375 12.8751C26.6583 13.5584 25.7 14.6001 24.5 16.0001H23.45C22.2167 14.5334 21.2417 13.4751 20.525 12.8251C19.8083 12.1751 18.8667 11.8501 17.7 11.8501C16.5 11.8501 15.5 12.2501 14.7 13.0501C13.9 13.8501 13.5 14.8501 13.5 16.0501C13.5 16.8501 13.7167 17.6668 14.15 18.5001C14.5833 19.3334 15.2 20.2251 16 21.1751C16.8 22.1251 17.7667 23.1251 18.9 24.1751C20.0333 25.2251 21.3 26.3834 22.7 27.6501L20.55 29.8001ZM25.775 8.1251C26.2583 7.64177 26.5 7.0501 26.5 6.3501C26.5 5.6501 26.2583 5.05843 25.775 4.5751C25.2917 4.09176 24.7 3.8501 24 3.8501C23.3 3.8501 22.7083 4.09176 22.225 4.5751C21.7417 5.05843 21.5 5.6501 21.5 6.3501C21.5 7.0501 21.7417 7.64177 22.225 8.1251C22.7083 8.60843 23.3 8.8501 24 8.8501C24.7 8.8501 25.2917 8.60843 25.775 8.1251ZM30.9 44.7001C30.1667 44.7001 29.4417 44.5834 28.725 44.3501C28.0083 44.1168 27.3167 43.7668 26.65 43.3001C26.9167 42.9001 27.1833 42.4501 27.45 41.9501C27.7167 41.4501 27.9333 40.9834 28.1 40.5501C28.5667 40.9168 29.0417 41.1918 29.525 41.3751C30.0083 41.5584 30.5 41.6501 31 41.6501C32.1667 41.6501 33.1583 41.2251 33.975 40.3751C34.7917 39.5251 35.2 38.5334 35.2 37.4001C35.2 36.7334 35.0667 36.0251 34.8 35.2751C34.5333 34.5251 34.2167 33.5834 33.85 32.4501L34.4 31.5001C35.9333 31.2334 37.5 30.8418 39.1 30.3251C40.7 29.8084 41.5 28.5501 41.5 26.5501C41.5 25.0834 40.9667 23.9918 39.9 23.2751C38.8333 22.5584 37.65 22.2001 36.35 22.2001C34.95 22.2001 33.2917 22.4668 31.375 23.0001C29.4583 23.5334 27.2333 24.2168 24.7 25.0501L23.95 22.1501C26.4833 21.3168 28.7667 20.6168 30.8 20.0501C32.8333 19.4834 34.6833 19.2001 36.35 19.2001C38.4833 19.2001 40.375 19.8418 42.025 21.1251C43.675 22.4084 44.5 24.2001 44.5 26.5001C44.5 27.4001 44.3333 28.2834 44 29.1501C43.6667 30.0168 43.2 30.7834 42.6 31.4501C44.1333 31.4834 45.4167 31.9834 46.45 32.9501C47.4833 33.9168 48 35.2001 48 36.8001C48 38.3001 47.4833 39.6001 46.45 40.7001C45.4167 41.8001 44.1167 42.3501 42.55 42.3501C41.5167 42.3501 40.6 42.1084 39.8 41.6251C39 41.1418 38.35 40.4668 37.85 39.6001C37.3167 41.1001 36.4333 42.3251 35.2 43.2751C33.9667 44.2251 32.5333 44.7001 30.9 44.7001ZM44.275 38.6251C44.7583 38.1418 45 37.5501 45 36.8501C45 36.1834 44.75 35.5918 44.25 35.0751C43.75 34.5584 43.1667 34.3001 42.5 34.3001C41.8333 34.3001 41.25 34.5501 40.75 35.0501C40.25 35.5501 40 36.1334 40 36.8001C40 37.4668 40.2583 38.0584 40.775 38.5751C41.2917 39.0918 41.8833 39.3501 42.55 39.3501C43.2167 39.3501 43.7917 39.1084 44.275 38.6251Z" fill="#F1E9DC"/>
</svg>
