<svg width="48" height="48" viewBox="0 0 48 48" fill="none" xmlns="http://www.w3.org/2000/svg">
<path d="M2.55 27.8C1.68333 26.3667 1.04167 24.925 0.625 23.475C0.208333 22.025 0 20.6 0 19.2C0 15.5333 1.28333 12.4167 3.85 9.85C6.41667 7.28333 9.53333 6 13.2 6C15.3 6 17.2917 6.43333 19.175 7.3C21.0583 8.16667 22.6667 9.35 24 10.85C25.3333 9.35 26.9417 8.16667 28.825 7.3C30.7083 6.43333 32.7 6 34.8 6C38.4667 6 41.5833 7.28333 44.15 9.85C46.7167 12.4167 48 15.5333 48 19.2C48 20.6 47.7917 22.0167 47.375 23.45C46.9583 24.8833 46.3167 26.3167 45.45 27.75C45.1167 27.35 44.7417 27.0083 44.325 26.725C43.9083 26.4417 43.4667 26.2 43 26C43.6667 24.8333 44.1667 23.6833 44.5 22.55C44.8333 21.4167 45 20.3 45 19.2C45 16.3667 44.0083 13.9583 42.025 11.975C40.0417 9.99167 37.6333 9 34.8 9C32.9667 9 31.1583 9.54167 29.375 10.625C27.5917 11.7083 25.8 13.35 24 15.55C22.2 13.35 20.4083 11.7083 18.625 10.625C16.8417 9.54167 15.0333 9 13.2 9C10.3667 9 7.95833 9.99167 5.975 11.975C3.99167 13.9583 3 16.3667 3 19.2C3 20.3 3.16667 21.4167 3.5 22.55C3.83333 23.6833 4.33333 24.8333 5 26C4.53333 26.2 4.09167 26.45 3.675 26.75C3.25833 27.05 2.88333 27.4 2.55 27.8ZM0 44V41.35C0 40.05 0.7 39 2.1 38.2C3.5 37.4 5.3 37 7.5 37C7.93333 37 8.33333 37.0083 8.7 37.025C9.06667 37.0417 9.43333 37.0833 9.8 37.15C9.53333 37.7167 9.33333 38.2917 9.2 38.875C9.06667 39.4583 9 40.0833 9 40.75V44H0ZM12 44V40.75C12 38.5833 13.1083 36.8333 15.325 35.5C17.5417 34.1667 20.4333 33.5 24 33.5C27.6 33.5 30.5 34.1667 32.7 35.5C34.9 36.8333 36 38.5833 36 40.75V44H12ZM39 44V40.75C39 40.0833 38.9417 39.4583 38.825 38.875C38.7083 38.2917 38.5167 37.7167 38.25 37.15C38.6167 37.0833 38.9833 37.0417 39.35 37.025C39.7167 37.0083 40.1 37 40.5 37C42.7333 37 44.5417 37.4 45.925 38.2C47.3083 39 48 40.05 48 41.35V44H39ZM24 36.5C21.3333 36.5 19.1667 36.9 17.5 37.7C15.8333 38.5 15 39.5167 15 40.75V41H33V40.7C33 39.5 32.175 38.5 30.525 37.7C28.875 36.9 26.7 36.5 24 36.5ZM7.5 35.5C6.53333 35.5 5.70833 35.1583 5.025 34.475C4.34167 33.7917 4 32.9667 4 32C4 31.0333 4.34167 30.2083 5.025 29.525C5.70833 28.8417 6.53333 28.5 7.5 28.5C8.46667 28.5 9.29167 28.8417 9.975 29.525C10.6583 30.2083 11 31.0333 11 32C11 32.9667 10.6583 33.7917 9.975 34.475C9.29167 35.1583 8.46667 35.5 7.5 35.5ZM40.5 35.5C39.5333 35.5 38.7083 35.1583 38.025 34.475C37.3417 33.7917 37 32.9667 37 32C37 31.0333 37.3417 30.2083 38.025 29.525C38.7083 28.8417 39.5333 28.5 40.5 28.5C41.4667 28.5 42.2917 28.8417 42.975 29.525C43.6583 30.2083 44 31.0333 44 32C44 32.9667 43.6583 33.7917 42.975 34.475C42.2917 35.1583 41.4667 35.5 40.5 35.5ZM24 32C22.3333 32 20.9167 31.4167 19.75 30.25C18.5833 29.0833 18 27.6667 18 26C18 24.3 18.5833 22.875 19.75 21.725C20.9167 20.575 22.3333 20 24 20C25.7 20 27.125 20.575 28.275 21.725C29.425 22.875 30 24.3 30 26C30 27.6667 29.425 29.0833 28.275 30.25C27.125 31.4167 25.7 32 24 32ZM24 23C23.1667 23 22.4583 23.2833 21.875 23.85C21.2917 24.4167 21 25.1333 21 26C21 26.8333 21.2917 27.5417 21.875 28.125C22.4583 28.7083 23.1667 29 24 29C24.8667 29 25.5833 28.7083 26.15 28.125C26.7167 27.5417 27 26.8333 27 26C27 25.1333 26.7167 24.4167 26.15 23.85C25.5833 23.2833 24.8667 23 24 23Z" fill="#F1E9DC"/>
</svg>
