<svg width="48" height="48" viewBox="0 0 48 48" fill="none" xmlns="http://www.w3.org/2000/svg">
<path d="M11.3333 17.4556V36.6667H34.6667V17.4556H29.2222V30.7556L23 27.6444L16.7778 30.7556V17.4556H11.3333ZM11.3333 39C10.6917 39 10.1424 38.7715 9.68561 38.3144C9.22854 37.8576 9 37.3083 9 36.6667V16.0944C9 15.8383 9.03889 15.5912 9.11667 15.3532C9.19444 15.1152 9.31111 14.8956 9.46667 14.6944L11.4889 11.9333C11.6963 11.6481 11.9677 11.4213 12.3032 11.2528C12.6387 11.0843 12.9895 11 13.3556 11H32.6056C32.9716 11 33.3224 11.0843 33.6579 11.2528C33.9934 11.4213 34.2648 11.6481 34.4722 11.9333L36.5333 14.6944C36.6889 14.8956 36.8056 15.1152 36.8833 15.3532C36.9611 15.5912 37 15.8383 37 16.0944V36.6667C37 37.3083 36.7716 37.8576 36.3148 38.3144C35.8577 38.7715 35.3083 39 34.6667 39H11.3333ZM11.9944 15.1222H33.9667L32.5507 13.3333H13.3944L11.9944 15.1222ZM19.1111 17.4556V26.9833L23 25.0389L26.8889 26.9833V17.4556H19.1111Z" fill="#263238"/>
</svg>
