<svg width="48" height="48" viewBox="0 0 48 48" fill="none" xmlns="http://www.w3.org/2000/svg">
<path d="M41 12.625V35.375C41 36.075 40.7375 36.6875 40.2125 37.2125C39.6875 37.7375 39.075 38 38.375 38H8.625C7.925 38 7.3125 37.7375 6.7875 37.2125C6.2625 36.6875 6 36.075 6 35.375V12.625C6 11.925 6.2625 11.3125 6.7875 10.7875C7.3125 10.2625 7.925 10 8.625 10H38.375C39.075 10 39.6875 10.2625 40.2125 10.7875C40.7375 11.3125 41 11.925 41 12.625ZM8.625 17.3937H38.375V12.625H8.625V17.3937ZM8.625 23.0375V35.375H38.375V23.0375H8.625Z" fill="#263238"/>
</svg>
