<svg width="30" height="30" viewBox="0 0 30 30" fill="none" xmlns="http://www.w3.org/2000/svg">
<rect x="0.5" y="0.5" width="29" height="29" rx="9.5" stroke="black" stroke-opacity="0.3"/>
<path d="M5.78125 27.5C5.44792 27.5 5.14583 27.3646 4.875 27.0938C4.60417 26.8229 4.46875 26.5208 4.46875 26.1875V22.9063C4.46875 21.0313 5.05208 19.375 6.21875 17.9375C7.38542 16.5 8.88542 15.5833 10.7188 15.1875C9.88542 15.7708 9.23958 16.5052 8.78125 17.3906C8.32292 18.276 8.09375 19.2292 8.09375 20.25V26.1875C8.09375 26.4167 8.125 26.6458 8.1875 26.875C8.25 27.1042 8.35417 27.3125 8.5 27.5H5.78125ZM10.375 27.5C10.0208 27.5 9.71354 27.3698 9.45312 27.1094C9.19271 26.849 9.0625 26.5417 9.0625 26.1875V20.25C9.0625 18.7917 9.57812 17.5521 10.6094 16.5313C11.6406 15.5104 12.8854 15 14.3438 15H20.25C21.7083 15 22.9479 15.5104 23.9688 16.5313C24.9896 17.5521 25.5 18.7917 25.5 20.25V22.25C25.5 23.7083 24.9896 24.9479 23.9688 25.9688C22.9479 26.9896 21.7083 27.5 20.25 27.5H10.375ZM15 12.375C13.625 12.375 12.4583 11.8958 11.5 10.9375C10.5417 9.97917 10.0625 8.8125 10.0625 7.4375C10.0625 6.0625 10.5417 4.89583 11.5 3.9375C12.4583 2.97917 13.625 2.5 15 2.5C16.375 2.5 17.5417 2.97917 18.5 3.9375C19.4583 4.89583 19.9375 6.0625 19.9375 7.4375C19.9375 8.8125 19.4583 9.97917 18.5 10.9375C17.5417 11.8958 16.375 12.375 15 12.375Z" fill="#263238"/>
</svg>
