<svg width="112" height="112" viewBox="0 0 112 112" fill="none" xmlns="http://www.w3.org/2000/svg">
<path d="M92.75 98C83.7278 98 74.5306 95.8222 65.1583 91.4667C55.7861 87.1111 47.0944 80.9278 39.0833 72.9167C31.0722 64.9056 24.8889 56.2139 20.5333 46.8417C16.1778 37.4694 14 28.2722 14 19.25C14 17.7497 14.5001 16.4998 15.5003 15.5003C16.4998 14.5001 17.7497 14 19.25 14H35.5833C36.6722 14 37.6056 14.3889 38.3833 15.1667C39.1611 15.9444 39.7056 16.9167 40.0167 18.0833L43.1585 32.7413C43.3195 33.8582 43.3028 34.8639 43.1083 35.7583C42.9139 36.6528 42.4966 37.4201 41.8565 38.0602L30.2167 49.8167C32.2389 53.2389 34.3778 56.4278 36.6333 59.3833C38.8889 62.3389 41.3778 65.1389 44.1 67.7833C46.9778 70.7389 50.0111 73.4417 53.2 75.8917C56.3889 78.3417 59.7333 80.5 63.2333 82.3667L74.3167 70.9333C75.0944 70.0778 75.9947 69.4944 77.0175 69.1833C78.0403 68.8722 79.0456 68.7944 80.0333 68.95L93.9167 71.9833C95.0833 72.2944 96.0556 72.9182 96.8333 73.8547C97.6111 74.7919 98 75.8403 98 77V92.75C98 94.2503 97.4999 95.5002 96.4997 96.4997C95.5002 97.4999 94.2503 98 92.75 98ZM26.7167 43.4L36.1667 33.8333L33.4833 21H21C21.1556 24.2667 21.6806 27.7083 22.575 31.325C23.4694 34.9417 24.85 38.9667 26.7167 43.4ZM69.7667 85.75C72.9556 87.2278 76.4167 88.4333 80.15 89.3667C83.8833 90.3 87.5 90.8444 91 91V78.5167L78.9833 76.0667L69.7667 85.75Z" fill="#263238"/>
</svg>
