<svg width="112" height="112" viewBox="0 0 112 112" fill="none" xmlns="http://www.w3.org/2000/svg">
<path d="M21 98C19.075 98 17.4273 97.3144 16.0568 95.9432C14.6856 94.5727 14 92.925 14 91V42C14 34.2222 16.7222 27.6111 22.1667 22.1667C27.6111 16.7222 34.2222 14 42 14H70C77.7778 14 84.3889 16.7222 89.8333 22.1667C95.2778 27.6111 98 34.2222 98 42V91C98 92.925 97.3148 94.5727 95.9443 95.9432C94.5731 97.3144 92.925 98 91 98H21ZM21 91H91V42C91 36.1667 88.9583 31.2083 84.875 27.125C80.7917 23.0417 75.8333 21 70 21H42C36.1667 21 31.2083 23.0417 27.125 27.125C23.0417 31.2083 21 36.1667 21 42V91ZM36.225 52.4312C34.6306 50.8297 33.8333 48.9047 33.8333 46.6562C33.8333 44.4076 34.6341 42.4861 36.2355 40.8917C37.8369 39.2972 39.7619 38.5 42.0105 38.5C44.2591 38.5 46.1806 39.3007 47.775 40.9022C49.3694 42.5036 50.1667 44.4286 50.1667 46.6772C50.1667 48.9257 49.3659 50.8472 47.7645 52.4417C46.1631 54.0361 44.2381 54.8333 41.9895 54.8333C39.7409 54.8333 37.8194 54.0326 36.225 52.4312ZM64.225 52.4312C62.6306 50.8297 61.8333 48.9047 61.8333 46.6562C61.8333 44.4076 62.6341 42.4861 64.2355 40.8917C65.8369 39.2972 67.7619 38.5 70.0105 38.5C72.2591 38.5 74.1806 39.3007 75.775 40.9022C77.3694 42.5036 78.1667 44.4286 78.1667 46.6772C78.1667 48.9257 77.3659 50.8472 75.7645 52.4417C74.1631 54.0361 72.2381 54.8333 69.9895 54.8333C67.7409 54.8333 65.8194 54.0326 64.225 52.4312ZM33.8333 91V78.1667C33.8333 76.2417 34.5189 74.5936 35.8902 73.2223C37.2606 71.8519 38.9083 71.1667 40.8333 71.1667H71.1667C73.0917 71.1667 74.7398 71.8519 76.111 73.2223C77.4814 74.5936 78.1667 76.2417 78.1667 78.1667V91H71.1667V78.1667H59.5V91H52.5V78.1667H40.8333V91H33.8333Z" fill="#263238"/>
</svg>
