<svg width="25" height="25" viewBox="0 0 25 25" fill="none" xmlns="http://www.w3.org/2000/svg">
<path d="M11.4584 21.875V20.3125H20.3125V12.3958C20.3125 10.2484 19.5546 8.42691 18.0386 6.93125C16.5226 5.43542 14.6764 4.6875 12.5 4.6875C10.3237 4.6875 8.47747 5.43542 6.9615 6.93125C5.44553 8.42691 4.68754 10.2484 4.68754 12.3958V18.75H4.16671C3.59379 18.75 3.10334 18.546 2.69535 18.138C2.28737 17.73 2.08337 17.2396 2.08337 16.6667V14.5833C2.08337 14.2188 2.17452 13.8759 2.35681 13.5547C2.5391 13.2335 2.79518 12.9774 3.12504 12.7865L3.20317 11.4062C3.34205 10.2257 3.68494 9.13194 4.23181 8.125C4.77869 7.11806 5.46445 6.24132 6.2891 5.49479C7.11376 4.74826 8.05994 4.16667 9.12765 3.75C10.1954 3.33333 11.3195 3.125 12.5 3.125C13.6806 3.125 14.8004 3.33333 15.8594 3.75C16.9184 4.16667 17.8646 4.74392 18.698 5.48177C19.5313 6.21962 20.2171 7.09201 20.7552 8.09896C21.2934 9.1059 21.6407 10.1997 21.7969 11.3802L21.875 12.7344C22.2049 12.8906 22.461 13.125 22.6433 13.4375C22.8256 13.75 22.9167 14.0799 22.9167 14.4271V16.8229C22.9167 17.1701 22.8256 17.5 22.6433 17.8125C22.461 18.125 22.2049 18.3594 21.875 18.5156V20.3125C21.875 20.7422 21.7221 21.11 21.4162 21.4159C21.1101 21.722 20.7422 21.875 20.3125 21.875H11.4584ZM8.81515 14.0969C8.66758 13.9464 8.59379 13.7597 8.59379 13.537C8.59379 13.3144 8.66914 13.1293 8.81983 12.9818C8.97035 12.8342 9.15699 12.7604 9.37973 12.7604C9.6023 12.7604 9.78737 12.8358 9.93494 12.9865C10.0825 13.137 10.1563 13.3236 10.1563 13.5464C10.1563 13.7689 10.0809 13.954 9.93025 14.1016C9.77973 14.2491 9.5931 14.3229 9.37035 14.3229C9.14778 14.3229 8.96271 14.2476 8.81515 14.0969ZM15.0651 14.0969C14.9176 13.9464 14.8438 13.7597 14.8438 13.537C14.8438 13.3144 14.9191 13.1293 15.0698 12.9818C15.2204 12.8342 15.407 12.7604 15.6297 12.7604C15.8523 12.7604 16.0374 12.8358 16.1849 12.9865C16.3325 13.137 16.4063 13.3236 16.4063 13.5464C16.4063 13.7689 16.3309 13.954 16.1803 14.1016C16.0297 14.2491 15.8431 14.3229 15.6204 14.3229C15.3978 14.3229 15.2127 14.2476 15.0651 14.0969ZM6.27608 12.9688C6.15455 11.1285 6.71011 9.54861 7.94275 8.22917C9.17539 6.90972 10.7118 6.25 12.5521 6.25C14.0625 6.25 15.3733 6.74913 16.4844 7.7474C17.5955 8.74566 18.2726 9.99132 18.5157 11.4844C16.9705 11.467 15.5599 11.033 14.2839 10.1823C13.0079 9.3316 12.0202 8.21181 11.3209 6.82292C11.048 8.21181 10.4645 9.44878 9.57035 10.5339C8.67626 11.6189 7.57817 12.4306 6.27608 12.9688Z" fill="#263238"/>
</svg>
